<?xml version="1.0" encoding="utf-8"?>
<!-- Generator: Adobe Illustrator 19.2.0, SVG Export Plug-In . SVG Version: 6.00 Build 0)  -->
<svg version="1.1" id="Calque_1" xmlns="http://www.w3.org/2000/svg" xmlns:xlink="http://www.w3.org/1999/xlink" x="0px" y="0px"
	 width="674.6px" height="302.3px" viewBox="0 0 674.6 302.3" enable-background="new 0 0 674.6 302.3" xml:space="preserve">
<g>
	<path fill-rule="evenodd" clip-rule="evenodd" fill="#ED174F" d="M316.4,8.2c2.2,0,4.3,0,6.5,0c0-0.1,0-0.3,0-0.4
		c0.6-0.1,1.1-0.3,1.7-0.4c0.1,0.9,0.3,1.7,0.4,2.6c-0.4,0-0.9,0-1.3,0c0,0.3,0,0.6,0,0.9c-0.6,0-1.1,0-1.7,0
		c-0.3,1.3-0.5,1.4-1.7,1.7c-0.3,1.1-0.5,1.2-1.3,1.7c0.1,0.4,0.3,0.9,0.4,1.3c0.3,0.1,0.6,0.3,0.9,0.4c0.1,0.7,0.3,1.4,0.4,2.2
		c0.1,0,0.3,0,0.4,0c-0.1,0.4-0.3,0.9-0.4,1.3c0,0,0.8,0.7,0.9,0.9c0.2,0.3,0.5,0,0.4,0.9c-0.1,0-0.3,0-0.4,0
		c0.1,0.3,0.3,0.6,0.4,0.9c-0.1,0-0.3,0-0.4,0c-0.4,0.7-0.8,0.7-1.3,1.3c-0.4-0.1-0.9-0.3-1.3-0.4c0-0.1,0-0.3,0-0.4
		c-0.9-0.7-1.3-1.4-2.6-1.7c-0.1-0.6-0.3-1.1-0.4-1.7c-0.1,0-0.3,0-0.4,0c-0.5,0.5,0,0.2-0.9,0.4c0-0.3,0-0.6,0-0.9c-1,0-2,0-3,0
		c0,0.4,0,0.9,0,1.3c-0.3,0-0.6,0-0.9,0c-0.1,0.6-0.3,1.1-0.4,1.7c-1,0-2,0-3,0c-0.3,0.1-0.2,1.2-1.3,0.9c0-0.1,0-0.3,0-0.4
		c-0.9-0.2-0.4,0.1-0.9-0.4c0.5-0.4,0.6-0.2,0.9-0.9c-0.1,0-0.3,0-0.4,0c0-0.1,0-0.3,0-0.4c0.1,0,0.3,0,0.4,0
		c-0.5-0.5,0-0.2-0.9-0.4c0.1-1,0.2-1.1,0.4-1.7c0.4,0.1,0.9,0.3,1.3,0.4c-0.3-1.7-0.2-2-0.4-3.4c0.3,0,0.6,0,0.9,0
		c0-0.1,0-0.3,0-0.4c-0.5-0.4-0.1,0.1-0.4-0.4c-0.4,0-0.9,0-1.3,0c0-0.3,0-0.6,0-0.9c-0.3,0-0.6,0-0.9,0c0-0.6,0-1.1,0-1.7
		c-1.5-0.2-2.2-0.3-2.6-1.7c-0.1,0-0.3,0-0.4,0c0-0.9,0-1.7,0-2.6c1.1-0.6,0.7-0.8,2.6-0.9c0,0.1,0,0.3,0,0.4c0.1,0,0.3,0,0.4,0
		c0-0.1,0-0.3,0-0.4c0.9-0.1,1.5,0.5,1.7,0.4c0.2,0,0.1-1.2,1.3-0.9c0,0.1,0,0.3,0,0.4c0.3,0.2,1.7,1,2.2,0.9c0-0.1,0-0.3,0-0.4
		c1.1-0.3,0.7-0.2,1.3-0.9c0.1,0,0.3,0,0.4,0c0.6-2,1.1-4,1.7-6c0.5,0.4,0.1-0.1,0.4,0.4C314.6,3,315.5,5.6,316.4,8.2z"/>
	<path fill-rule="evenodd" clip-rule="evenodd" fill="#ED174F" d="M331,24.5c0.3,0,0.6,0,0.9,0c0.1,1.2,2,7.2,2.6,7.7
		c1,0.9,4.7,0.5,6.4,0.4c0.1-0.4,0.3-0.9,0.4-1.3c0.3,0,0.6,0,0.9,0c0.3,1.4,0.7,0.9,0.9,2.6c-1,0.3-2,0.6-3,0.9c0,0.3,0,0.6,0,0.9
		c-0.3,0-0.6,0-0.9,0c0,0.3,0,0.6,0,0.9c-0.3,0-0.6,0-0.9,0c-0.3,1.2-0.1,1-1.3,1.3c0.1,0.9,0.3,1.7,0.4,2.6c0.3,0,0.6,0,0.9,0
		c0.1,0.9,0.3,1.7,0.4,2.6l-0.4,0.4c0.4,0.3,0.9,0.6,1.3,0.9c0,0.4,0,0.9,0,1.3L340,46c-0.1,0-0.3,0-0.4,0c-0.4,0.7-0.8,0.7-1.3,1.3
		c-0.9-0.2-0.4,0.1-0.9-0.4c-1.3-0.3-1.8-0.8-2.1-2.1c-0.4,0-0.9,0-1.3,0c-0.3-1.2-0.1-1-1.3-1.3c-1-1-1.5-0.6-3-0.4
		c0,0.3,0,0.6,0,0.9c-1.7,0.5-0.6,0.2-1.3,1.3c-0.1,0-0.3,0-0.4,0c0,0.3,0,0.6,0,0.9c-0.4-0.1-0.9-0.3-1.3-0.4c0,0.1,0,0.3,0,0.4
		c-0.6,0-1.1,0-1.7,0c-0.1,0.3-0.3,0.6-0.4,0.9c-0.1,0-0.3,0-0.4,0c0-0.1,0-0.3,0-0.4c-0.7-0.5-0.6-0.3-0.9-1.3c0.1,0,0.3,0,0.4,0
		c-0.1-0.9-0.3-1.7-0.4-2.6c0.4,0,0.9,0,1.3,0c0-1.6,0-3.3,0.4-4.3c-0.4,0-0.9,0-1.3,0c0-0.1,0-0.3,0-0.4c0.5-0.5,0.2,0,0.4-0.9
		c-0.6,0.1-1.1,0.3-1.7,0.4c0-0.1,0-0.3,0-0.4c0.1,0,0.3,0,0.4,0c0-0.4,0-0.9,0-1.3c-0.7,0-1.4,0-2.1,0c0-0.3,0-0.6,0-0.9
		c-0.4-0.3-0.9-0.6-1.3-0.9c0.1-0.3,0.3-0.6,0.4-0.9c-0.1,0-0.3,0-0.4,0c-0.1-0.9,0.1-0.5,0.4-0.9c0.3-1.2,0.1-1,1.3-1.3
		c0.5-0.4,2.2-0.2,3.4,0c0-0.3,0-0.6,0-0.9c0.6,0.1,1.1,0.3,1.7,0.4c0,0.3,0,0.6,0,0.9c0.4,0.1,0.9,0.3,1.3,0.4c0-0.1,0-0.3,0-0.4
		c0.8-0.4,0.7-0.6,1.7-0.9C329.8,28.5,330.4,26.5,331,24.5z"/>
	<path fill-rule="evenodd" clip-rule="evenodd" fill="#ED174F" d="M309,46.9c2.4,0,4.9,0,7.3,0c0-0.3,0-0.6,0-0.9
		c1,0.3,0.8,0.1,1.3,0.9c0.1,0,0.3,0,0.4,0c0.3,0.5-0.4,0.2-0.4,0.4c0.1,0.4,0.3,0.9,0.4,1.3c-1.6,0-2.3,0.4-3.4,0.9
		c-0.1,0.4-0.3,0.9-0.4,1.3c-0.1,0-0.3,0-0.4,0c-0.7,0.9-1.4,1.3-1.7,2.6c0.8,0.8,0.9,2.3,1.3,3.4c0.1,0,0.3,0,0.4,0
		c-0.1,0.4-0.3,0.9-0.4,1.3c0.3,0,0.6,0,0.9,0c0.1,0.9,0.3,1.7,0.4,2.6c-1.1,0.6-1.5,1.9-2.2,0.4c-0.4,0-0.9,0-1.3,0
		c-0.5-1-1.1-2.5-2.1-1.7c-0.2-0.4-0.2-1.3-0.4-1.7c-0.4,0.1-0.9,0.3-1.3,0.4c0-0.3,0-0.6,0-0.9c-1,0-2,0-3,0
		c0.1,0.3,0.3,0.6,0.4,0.9c-0.3,0-0.6,0-0.9,0c-0.5,0.5-0.7,1.3-0.9,2.2c-0.6,0-1.1,0-1.7,0c0,0.1,0,0.3,0,0.4c-0.1,0-0.3,0-0.4,0
		c0-0.1,0-0.3,0-0.4c-0.1,0-0.3,0-0.4,0c0,0.1,0,0.3,0,0.4c-0.6,0.1-1.1,0.3-1.7,0.4c0-0.1,0-0.3,0-0.4c-0.1,0-0.3,0-0.4,0
		c0.1-0.4,0.3-0.9,0.4-1.3c-0.1,0-0.3,0-0.4,0c0-0.1,0-0.3,0-0.4c0.1,0,0.3,0,0.4,0c0-0.1,0-0.3,0-0.4c-0.1,0-0.3,0-0.4,0
		c0-0.6,0-1.1,0-1.7c0.4,0,0.9,0,1.3,0c-0.4-0.5,0.1-0.1-0.4-0.4c0.4-1,0.8-2.5,0.4-3c-0.5-0.5,0-0.2-0.9-0.4c0-0.4,0-0.9,0-1.3
		c-0.4,0.1-0.9,0.3-1.3,0.4c-0.1-0.7-0.3-1.4-0.4-2.1c-0.6,0-1.1,0-1.7,0c0-0.4,0-0.9,0-1.3c-0.3,0-0.6,0-0.9,0c0-1.4,0.2-1.9,0.4-3
		c1-0.4,2.3-0.4,3.9-0.4c0.5,0.5,0,0.2,0.9,0.4c0-0.3,0-0.6,0-0.9c0.4,0,0.9,0,1.3,0c0,0.3,0,0.6,0,0.9c1,0,1.1,0.3,1.7,0.4
		c0-0.1,0-0.3,0-0.4c0.6-0.3,0.7-0.3,1.7-0.4c0.1-1.3,1.5-5.8,2.1-6.4c0,0.1,0,0.3,0,0.4C307.2,39.9,308.9,45.3,309,46.9z"/>
</g>
<path fill-rule="evenodd" clip-rule="evenodd" fill="#7C0040" d="M245.4,47.7c0.9,0,1.7,0,2.6,0c0,0.4,0,0.9,0,1.3
	c0.4,0,0.9,0,1.3,0c-0.1-0.3-0.3-0.6-0.4-0.9c0.1,0,0.3,0,0.4,0c0.5-0.5,0-0.2,0.9-0.4c-0.1,0.6-0.3,1.1-0.4,1.7
	c1.2,0.3,1,0.6,2.1,0.9c0-0.3,0-0.6,0-0.9c2.2-0.1,1.1-0.4,3,0.4c0,0.3,0,0.6,0,0.9c-0.5,0.2-0.8,0.8-0.9,0.9
	c-0.9,0.1-1.7,0.3-2.6,0.4c0,0.1,0,0.3,0,0.4c0.3,0,0.6,0,0.9,0c0,0.1,0,0.3,0,0.4c0.6,0,1.1,0,1.7,0c0.4-0.6,0.6-1,1.3-1.3
	c0,0.1,0,0.3,0,0.4c0.1,0,0.3,0,0.4,0c-0.4,0.5,0.1,0.1-0.4,0.4c-0.5,0.5,0,0.2-0.9,0.4c0,0.3,0,0.6,0,0.9c0.7-0.1,1.4-0.3,2.1-0.4
	c0,0.1,0,0.3,0,0.4c-1.2,0.3-1,0.1-1.3,1.3c0.7,0.1,1.4,0.3,2.1,0.4c0.4,0.8,0.6,1.3,1.3,1.7c-0.4,0.6-0.9,1.1-1.3,1.7
	c-0.1,0-0.3,0-0.4,0c0.1,0.3,0.3,0.6,0.4,0.9c-0.1,0-0.3,0-0.4,0c-0.5,0.7-0.6,0.7-0.9,1.7c1.8,0.5,1.7,1.7,3,2.6
	c-0.3,0.4-0.5,0.4-0.9,0.9c2.1-0.1,1.7-0.7,1.7,1.7c-0.6,0,0.1-0.1-0.4-0.4c-0.7-0.5-0.4,1.1-0.4,1.3c-0.3,0-0.6,0-0.9,0
	c0.1,0.4,0.3,0.9,0.4,1.3c-0.3,0-0.6,0-0.9,0c0.6,1.4,0.8,2.2,0.4,3.4c0.1,0,0.3,0,0.4,0c0.3-0.6,0.3-0.5,0.9-0.9
	c0.1,0.6,0.3,1.1,0.4,1.7l-0.4-0.4c-0.3,0.1-0.6,0.3-0.9,0.4c-0.1,0.4-0.3,0.9-0.4,1.3c0.4,0.1,0.9,0.3,1.3,0.4c0,0.1,0,0.3,0,0.4
	c-0.1,0-0.3,0-0.4,0c-0.8,0.4,0.9,0.4,0.9,0.4c0,0.3,0,0.6,0,0.9c-0.9,0-1.7,0-2.6,0c0.4,1.6,1.3,1.7,1.7,3.4
	c-0.7-0.1-1.4-0.3-2.2-0.4c0,0.1,0,0.3,0,0.4c-0.4,0.3-0.4,0.5-0.9,0.9c0.6,1.4,1.5,2.1,1.7,3.9c-0.6-0.2-0.9,0.4-0.9-0.4
	c0.1,0,0.3,0,0.4,0c-0.1-0.3-0.3-0.6-0.4-0.9c-0.6,0.2,0.1,0.2-0.4,0.4c-0.6,0-1.1,0-1.7,0c0,0.1,0,0.3,0,0.4c0.1,0,0.3,0,0.4,0
	c0,0.4,0,0.9,0,1.3c-0.6,0-1.1,0-1.7,0c0,0.1,0,0.3,0,0.4c0.1,0,0.3,0,0.4,0c0,0.9,0,1.7,0,2.6c-0.1,0-0.3,0-0.4,0
	c-0.5,0.5,0,0.2-0.9,0.4c0.5,1.9,1,0.6,0.4,2.6c-0.5-0.4-0.1,0.1-0.4-0.4c-0.1,0-0.3,0-0.4,0c0.1-0.3,0.3-0.6,0.4-0.9
	c-0.1,0-0.3,0-0.4,0c-0.5-0.5,0-0.2-0.9-0.4c0,0.3,0,0.6,0,0.9c-0.4,0-0.9,0-1.3,0c0,0.4,0,0.9,0,1.3c-0.3,0-0.6,0-0.9,0
	c-0.1,0.9-0.3,1.7-0.4,2.6c-0.1,0-0.3,0-0.4,0c-0.9-1.3-0.4-0.8-1.7-0.4c0-0.3,0-0.6,0-0.9c-0.1,0-0.3,0-0.4,0c0,0.1,0,0.3,0,0.4
	c-0.6,0-1.1,0-1.7,0c0,0.1,0,0.3,0,0.4c-0.1,0-0.3,0-0.4,0c0-0.1,0-0.3,0-0.4c-0.9,0.1-1.7,0.3-2.6,0.4c0-0.3,0-0.6,0-0.9
	c-1,0.1-2,0.3-3,0.4c0-0.3,0-0.6,0-0.9c-0.6-0.1-1.1-0.3-1.7-0.4c0-0.1,0-0.3,0-0.4c0.1,0,0.3,0,0.4,0c-0.5-0.7-0.3-0.6-1.3-0.9
	c0.1-0.4,0.3-0.9,0.4-1.3c-0.4,0.1-0.9,0.3-1.3,0.4c0-0.1,0-0.3,0-0.4c-0.8-0.6-2.1-2.5-2.6-3.4c0-0.3,0-0.6,0-0.9
	c-2.5-4.7-3.4-9-3.4-16.3c0.3,0,0.6,0,0.9,0c0-0.1,0-0.3,0-0.4c0.4,0.1,0.9,0.3,1.3,0.4c-0.1-0.6,0.1-0.2-0.4-0.4
	c0.7-1,0.7,0,1.3-0.4c0-0.1,0-0.3,0-0.4c-0.6,0-1.1,0-1.7,0c0-0.1,0-0.3,0-0.4c-0.1,0-0.3,0-0.4,0c0,0.1,0,0.3,0,0.4
	c-0.3,0-0.6,0-0.9,0c0.1-0.4,0.3-0.9,0.4-1.3c-0.1-0.2-0.7-0.1-0.4-0.9c0.3-0.1,0.6-0.3,0.9-0.4c0-0.1,0-0.3,0-0.4
	c-0.1,0-0.3,0-0.4,0c0-1,0-2,0-3c0.1,0,0.3,0,0.4,0c0-0.6,0-1.1,0-1.7c0.1,0,0.3,0,0.4,0c0.1-1,0.3-2,0.4-3c0.1,0,0.3,0,0.4,0
	c0-0.3,0-0.6,0-0.9c0.1,0,0.3,0,0.4,0c0-0.4,0-0.9,0-1.3c0.1,0,0.3,0,0.4,0c0.1-0.6,0.3-1.1,0.4-1.7c0.1,0,0.3,0,0.4,0
	c0-0.3,0-0.6,0-0.9c0.1,0,0.3,0,0.4,0c0.1-0.4,0.3-0.9,0.4-1.3c0.3-0.1,0.6-0.3,0.9-0.4c0-0.3,0-0.6,0-0.9c0.7-0.6,1.4-1.1,2.1-1.7
	c0.3-0.4,0.6-0.9,0.9-1.3c0.3,0,0.6,0,0.9,0c0.1-0.3,0.3-0.6,0.4-0.9c1.3-0.4,2.6-0.9,3.9-1.3c0,0.1,0,0.3,0,0.4
	c-0.5,0.4-0.1-0.1-0.4,0.4c-0.1,0-0.3,0-0.4,0c0,0.1,0,0.3,0,0.4c-0.6,0-1.1,0-1.7,0c-0.4,0.6-0.9,1.1-1.3,1.7c-0.3,0-0.6,0-0.9,0
	c0,0.1,0,0.3,0,0.4c-0.6,0.4-1.1,0.9-1.7,1.3c-0.9,1.2-0.7,1.7-2.2,2.6c0.3,0.4,0.6,0.9,0.9,1.3c-0.4-0.1-0.9-0.3-1.3-0.4
	c0,0.1,0,0.3,0,0.4c-0.1,0-0.3,0-0.4,0c0.1,0.7,0.3,1.4,0.4,2.2c-0.4,0-0.9,0-1.3,0c0,0.1,0,0.3,0,0.4c0.3,0,0.6,0,0.9,0
	c0.1,0.3,0.3,0.6,0.4,0.9c0.4-0.1,0.9-0.3,1.3-0.4c0,0.3,0,0.6,0,0.9c0.1,0,0.3,0,0.4,0c0-1.6,0-3.2,0-4.7c0.3,0.1,0.6,0.3,0.9,0.4
	c0-0.4,0-0.9,0-1.3c0.4-0.5,1.2-0.4,2.1-0.4c0-1.5,0.1-2.7,0.9-3.4c1,1.1,1.2,0.7,2.6,0.4c0-0.6,0-1.1,0-1.7
	c1.5,0.2,1.3,0.5,2.6,0.9c0-0.3,0-0.6,0-0.9c0.1,0,0.3,0,0.4,0c0-0.1,0-0.3,0-0.4c-0.1,0-0.3,0-0.4,0c-0.1-0.9,0.4-1.3,0.9-1.7
	c0.5,0.5,0,0.2,0.9,0.4c0,0.1,0,0.3,0,0.4C245.5,45.8,245.5,46.3,245.4,47.7z"/>
<path fill-rule="evenodd" clip-rule="evenodd" fill="#7C0040" d="M244.1,44.7c0,0.3,0,0.6,0,0.9c-0.5-0.4-0.1,0.1-0.4-0.4
	c-0.5-0.4-0.1,0.1-0.4-0.4C243.5,44.7,243.8,44.7,244.1,44.7z"/>
<path fill-rule="evenodd" clip-rule="evenodd" fill="#7C0040" d="M247.1,44.7c0.6,0.1,1.1,0.3,1.7,0.4c-0.5,0.5,0,0.2-0.9,0.4
	c-0.1,0.4-0.3,0.9-0.4,1.3c-0.1,0-0.3,0-0.4,0C247.1,46.2,247.1,45.4,247.1,44.7z"/>
<path fill-rule="evenodd" clip-rule="evenodd" fill="#7C0040" d="M330.4,55.1c0,0.3,0,0.6,0,0.9c0.3,0.1,0.6,0.3,0.9,0.4
	c0.5,1.4-0.7,1.4-0.9,1.7c0,0.4,0,0.9,0,1.3c0.7-0.1,1.4-0.3,2.2-0.4c-0.4,1.1-0.5,1.3,0,2.6c0.1,0,0.3,0,0.4,0
	c0.3,0.9-0.6,1.3-0.4,1.7c0,0,0.8,0.7,0.9,0.9c-0.9,0-1.7,0-2.6,0c0,0.4,0,0.9,0,1.3c0.7,0,1.4,0,2.1,0c0,0.1,0,0.3,0,0.4
	c-0.5,0.5-0.2,0-0.4,0.9c0.3,0,0.6,0,0.9,0c0,0.3,0,0.6,0,0.9c0.1,0,0.3,0,0.4,0c-0.1,0.4-0.3,0.9-0.4,1.3c-0.3,0-0.6,0-0.9,0
	c-0.2,1.5-0.3,4.6-0.9,6c-0.4,0-0.9,0-1.3,0c0-0.6,0-1.1,0-1.7c-0.3,0-0.6,0-0.9,0c0,0.6,0,1.1,0,1.7c-0.1,0-0.3,0-0.4,0
	c-0.4-0.4-0.7-0.6-1.3-0.9c0,0.6,0,1.1,0,1.7c0.1,0,0.3,0,0.4,0c0,0.1,0,0.3,0,0.4c0.4,0,0.9,0,1.3,0c0,0.1,0,0.3,0,0.4
	c-0.3,0-0.6,0-0.9,0c-0.5,0.5,0,0.2-0.9,0.4c0,0.1,0,0.3,0,0.4c0.4,0,0.9,0,1.3,0c0,0.1,0,0.3,0,0.4c-0.1,0-0.3,0-0.4,0
	c-1,0.9-2,1.7-3,2.6c0,0.3,0,0.6,0,0.9c-0.3,0.1-0.6,0.3-0.9,0.4c0,0.3,0,0.6,0,0.9c-0.4,0.3-0.9,0.6-1.3,0.9
	c-0.1,0.7-0.3,1.4-0.4,2.1c-1.7,0.9-3.4,1.7-5.2,2.6c0,0.1,0,0.3,0,0.4c0.4,0,0.9,0,1.3,0c0,0.1,0,0.3,0,0.4c-0.7,0-1.4,0-2.2,0
	c0,0.1,0,0.3,0,0.4c0.6,0.3,0.5,0.3,0.9,0.9c-2.6,0.1-3,1.3-4.7,2.1c0,1.4,0.8,0.8-0.4,1.3c-0.7,1.1-1.2,0.9-3,0.9
	c0.3,1.2,0.8,1.2,1.3,2.2c-0.3,0-0.6,0-0.9,0c0,0.1,0,0.3,0,0.4c-1.1,0-2.3,0-3.4,0c0,0.6,0,1.1,0,1.7c-0.3,0-0.6,0-0.9,0
	c-0.1,0.4-0.3,0.9-0.4,1.3c-1.1,0.6-2.3,1.1-3.4,1.7c-0.6,0-1.1,0-1.7,0c-3.6,1.2-8.9,0.9-9.9,4.7c-1.4-0.1-2.9-0.3-4.3-0.4
	c0,1.4-0.2,1.9-0.4,3c-0.5-0.5-0.2,0-0.4-0.9c-0.9,0.1-1.7,0.3-2.6,0.4c0.5,1.4,0.9,1.6-0.9,2.1c-1.2,1.1-2.8,0.3-4.7,0.9
	c0,0.1,0,0.3,0,0.4c-2.3,0.1-4.6,0.3-6.9,0.4c0,0.4,0,0.9,0,1.3c-2.1-0.1-2.5-0.8-3.9-1.3c-0.7,0-1.4,0-2.2,0c0,0.1,0,0.3,0,0.4
	c0.5,0.4,1,1.1,1.3,1.7c-0.1,0-0.3,0-0.4,0c0,0.1,0,0.3,0,0.4c-0.5,0.3-2,0.1-2.6,0.4c0-0.1,0-0.3,0-0.4c-0.5-0.5-0.2,0-0.4-0.9
	c-1.9-0.3-3.7-0.6-5.6-0.9c0,0.4,0,0.9,0,1.3c-0.3-0.1-0.6-0.3-0.9-0.4c0,0.1,0,0.3,0,0.4c-0.4,0.3-0.9,0.6-1.3,0.9
	c0,0.1,0,0.3,0,0.4c0.9,0.2,0.4-0.1,0.9,0.4c0.6-0.1,1.1-0.3,1.7-0.4c-0.5,1.8-1.4,1.4-3.4,1.3c0-0.3,0-0.6,0-0.9
	c-0.3,0-0.6,0-0.9,0c0,0.3,0,0.6,0,0.9c-1.8-0.2-1.8-0.9-3.4-1.3c0,0.3,0,0.6,0,0.9c-2.3-1.1-0.1-0.6-2.6,0c0-0.4,0-0.9,0-1.3
	c-0.6,0-1.1,0-1.7,0c0-0.1,0-0.3,0-0.4c-0.4,0.1-0.9,0.3-1.3,0.4c-1.4-0.1-2.9-0.3-4.3-0.4c0,0.3,0,0.6,0,0.9
	c-0.5-0.5-0.2,0-0.4-0.9c-1.3,0-2.6,0-3.9,0c0,0.3,0,0.6,0,0.9c-0.6,0.1-1.1,0.3-1.7,0.4c0.1-0.3,0.3-0.6,0.4-0.9
	c-0.1,0-0.3,0-0.4,0c-0.5,0.4-3.8,0.1-5.6,0c0.2,1.1,0.4,1,0.9,1.7c-0.1,0-0.3,0-0.4,0c0,0.1,0,0.3,0,0.4c-0.6,0-1.1,0-1.7,0
	c-0.5-0.5-3.3-1.7-4.7-1.3c0,0.1,0,0.3,0,0.4c-0.4-0.1-0.9-0.3-1.3-0.4c-0.1,0.4-0.3,0.9-0.4,1.3c-2,1-5.9-1.3-6.9-1.7
	c0,0.4,0,0.9,0,1.3c-0.9-0.1-1.7-0.3-2.6-0.4c0-0.1,0-0.3,0-0.4c-1,0-2,0-3,0c0-0.1,0-0.3,0-0.4c-1.1,0-2.3,0-3.4,0
	c0-0.1,0-0.3,0-0.4c-0.4,0-0.9,0-1.3,0c0-0.1,0-0.3,0-0.4c-0.6-0.1-1.1-0.3-1.7-0.4c0,0.1,0,0.3,0,0.4c-0.4,0.4-0.6,0.7-0.9,1.3
	c-1.1-0.4-3-0.4-4.7,0c-0.1,0-0.1,0.6-0.9,0.4c0-0.1,0-0.3,0-0.4c-0.7,0-1.4,0-2.1,0c0-0.1,0-0.3,0-0.4c-0.6,0-1.1,0-1.7,0
	c-2.8-0.9-4.7-1.3-8.6-1.3c0-0.4,0-0.9,0-1.3c-0.4-0.7-4.5-2.4-5.6-2.6c0,0.1,0,0.3,0,0.4c0.5,0.4,0.1-0.1,0.4,0.4
	c0.4,0.1,0.9,0.3,1.3,0.4c-0.3,1.2-0.6,1-0.9,2.1c-0.6,0-1.1,0-1.7,0c0-0.6,0-1.1,0-1.7c-0.3,0-0.6,0-0.9,0c0,0.3,0,0.6,0,0.9
	c-0.3,0-0.6,0-0.9,0c-0.1-0.4-0.3-0.9-0.4-1.3c-3.6,0-8.1-1.1-11.2,0c0-0.6,0-1.1,0-1.7c-0.4-0.1-0.9-0.3-1.3-0.4c0-0.1,0-0.3,0-0.4
	c-0.3,0-0.6,0-0.9,0c0-0.1,0-0.3,0-0.4c-0.7,0-1.4,0-2.2,0c0.1,0.3,0.3,0.6,0.4,0.9c-0.7,0-1.4,0-2.1,0c-0.5-0.6-1.2-0.8-1.7-1.3
	c-0.3-0.4-0.6-0.9-0.9-1.3c-0.1,0-0.3,0-0.4,0c-0.1,0-0.3,0-0.4,0c0-0.1,0-0.3,0-0.4c0.6,0,1.1,0,1.7,0c-0.1-0.4-0.3-0.9-0.4-1.3
	c-1.9,0.1-1.4,1-1.7-0.9c0.5-0.4,0.1,0.1,0.4-0.4c0.5,0.3,0.7,0.7,0.9,0.9c0.3,0,0.6,0,0.9,0c0,0.1,0,0.3,0,0.4
	c0.3-0.1,0.6-0.3,0.9-0.4c0,0.1,0,0.3,0,0.4c0.4,0,0.9,0,1.3,0c0,0.1,0,0.3,0,0.4c0.4,0.1,0.9,0.3,1.3,0.4c0,0.1,0,0.3,0,0.4
	c-0.4,0-0.9,0-1.3,0c0,0.1,0,0.3,0,0.4c1,0,2,0,3,0c0-1-0.1-1.1-0.4-1.7c0.1,0,0.3,0,0.4,0c0.6-0.9,0.7-0.8,2.1-0.9
	c0.9,1.7,1.7,3.4,2.6,5.2c0.6,0.1,1.1,0.3,1.7,0.4c-0.3-1.2-0.8-1.2-1.3-2.1c0.3,0,0.6,0,0.9,0c0.5,0.8,0.6,1,1.7,1.3
	c0-0.1,0-0.3,0-0.4c-0.4-0.3-0.9-0.6-1.3-0.9c0-0.1,0-0.3,0-0.4c-1.1-0.7-2.1-0.3-3-1.3c0.1,0,0.3,0,0.4,0c0-0.4,0-0.9,0-1.3
	c3.4,0.7,6,3,9.9,3.4c0-0.1,0-0.3,0-0.4c-0.6-0.3-1.3-0.8-1.7-1.3c0.7-0.1,1.4-0.3,2.1-0.4c0,0.1,0,0.3,0,0.4
	c0.6,0.5,0.7,0.8,0.9,1.7c0.4,0,0.9,0,1.3,0c-0.1-0.3-0.3-0.6-0.4-0.9c0.3,0,0.6,0,0.9,0c0.1-0.3,0.3-0.6,0.4-0.9c0.5,0,2,1,3,0.4
	c0-0.1,0-0.3,0-0.4c-0.8-0.4-0.7-0.6-1.7-0.9c0-0.3,0-0.6,0-0.9c1.1,0.1,1.5,0,2.2,0.4c0,0.1,0,0.3,0,0.4c0.3,0,0.6,0,0.9,0
	c0.1,0.3,0.3,0.6,0.4,0.9c0.3,0,0.6,0,0.9,0c1.3,0.7,1.3,1.1,3.4,1.3c0-0.6-0.3,0.2-0.4-0.4c-0.8-0.4,0.9-0.4,0.9-0.4
	c0.3,0.4,0.6,0.9,0.9,1.3c0.3,0,0.6,0,0.9,0c0,0.1,0,0.3,0,0.4c0.8,0.7,1.1,0.8,2.6,0.9c0-0.3,0-0.6,0-0.9c-1-0.6-2-2-2.6-3
	c0.4,0,0.9,0,1.3,0c0-0.1,0-0.3,0-0.4c-0.1,0-0.3,0-0.4,0c0-0.4,0-0.9,0-1.3c0.3,0,0.6,0,0.9,0c0,0.1,0,0.3,0,0.4
	c0.3,0.1,0.6,0.3,0.9,0.4c0,0.4,0,0.9,0,1.3c0.1,0,0.3,0,0.4,0c0.5,1.2-0.1,1.3,0.9,2.2c0.3-0.4,0.6-0.9,0.9-1.3c0.3,0,0.6,0,0.9,0
	c0-0.1,0-0.3,0-0.4c0.4,0,0.9,0,1.3,0c0-0.1,0-0.3,0-0.4c-0.5-0.5-0.2,0-0.4-0.9c0.4,0,0.9,0,1.3,0c0,0.1,0,0.3,0,0.4
	c0.4,0,0.9,0,1.3,0c0-0.1,0-0.3,0-0.4c0.4,0.1,0.9,0.3,1.3,0.4c0,0.1,0,0.3,0,0.4c-0.6,0-1.1,0-1.7,0c0,0.3,0,0.6,0,0.9
	c1.6,0.3,2.6,1,3,2.6c0.6-0.1,1.1-0.3,1.7-0.4c0-0.4,0-0.9,0-1.3c-0.1,0-0.3,0-0.4,0c-0.4-1.8-1.8-3.2-3.9-3.4c0,0.1,0,0.3,0,0.4
	c-0.6,0-1.1,0-1.7,0c0-0.3,0-0.6,0-0.9c0.7-0.1,1.4-0.3,2.2-0.4c0,0,0.3,0.6,1.3,0.4c0-0.1,0-0.3,0-0.4c0.6,0,1.1,0,1.7,0
	c0,0.1,0,0.3,0,0.4c0.9,0.1,1.7,0.3,2.6,0.4c-0.1,1.8-0.3,1.5-0.9,2.6c3.5,0.2,8.1,3.6,10.3,0c-0.8-0.4-1.3-0.9-1.7-1.7
	c0.6,0,1.1,0,1.7,0c0,0.1,0,0.3,0,0.4c0.8,0.4,1.3-0.3,1.7-0.4c-0.7-0.9-0.9-0.2-1.3-1.7c-0.3,0-0.6,0-0.9,0c0-0.3,0-0.6,0-0.9
	c1.3,0.6,3.2,2.5,4.3,1.7c0.5-0.5,0.2,0,0.4-0.9c2.7,0,4.1,0.9,6,1.7c0-0.3,0-0.6,0-0.9c-0.9-0.2-0.4,0.1-0.9-0.4
	c1.7,0.1,2.1,0.4,3.4,0.9c0,0.1,0,0.3,0,0.4c1.6,0.3,0.8-0.9,1.3-1.3c0.3,0.1,0.6,0.3,0.9,0.4c0,0.1,0,0.3,0,0.4c0.1,0,0.3,0,0.4,0
	c0-0.1,0-0.3,0-0.4c0.7,0.1,1.4,0.3,2.1,0.4c0-1.1-0.1-1.5-0.4-2.1c0.1,0,0.3,0,0.4,0c0.3-0.4,0.6-0.9,0.9-1.3
	c0.7,0.1,1.4,0.3,2.2,0.4c0,0.3,0,0.6,0,0.9c2.3,0.6,2.4,2.4,5.2,2.6c0.2-1.5,0.5-1.3,0.9-2.6c0.3,0,0.6,0,0.9,0c0-0.1,0-0.3,0-0.4
	c0.1,0,1,0.4,1.7,0.4c0-0.1,0-0.3,0-0.4c-0.5-0.5-0.2,0-0.4-0.9c0.4,0,0.9,0,1.3,0c-0.1-0.4-0.3-0.9-0.4-1.3c0.1,0,0.3,0,0.4,0
	c0,0.1,0,0.3,0,0.4c0.6,0.5,0.6,0.9,1.3,1.3c-0.1,0.4-0.3,0.9-0.4,1.3c0.3,0,0.6,0,0.9,0c0.1,0.6,0.3,1.1,0.4,1.7c0.1,0,0.3,0,0.4,0
	c0.8,1.5,0.6,1.7,3,1.7c1.4-1.4,3.1-0.4,4.7,0l-0.4-0.4c0.1-0.4,0.3-0.9,0.4-1.3c-0.7-0.1-1.4-0.3-2.1-0.4c-0.4-0.8-0.6-0.7-0.9-1.7
	c-0.4,0-0.9,0-1.3,0c0,0.1,0,0.3,0,0.4c-0.1,0-0.3,0-0.4,0c0,0.7,0,1.4,0,2.2l-0.4,0.4c-0.4-0.1-0.9-0.3-1.3-0.4
	c-0.1-0.4-0.3-0.9-0.4-1.3c0.6-0.3,1.3-0.8,1.7-1.3c-0.8-0.4-1.3-1-1.7-1.7c1.9,0,2.6-0.3,3.9-0.9c0-0.1,0-0.3,0-0.4
	c1.7-0.6,2.5,0.7,3.4,0.9c0.1,0,0.4-0.6,0.9-0.9c0,0.4,0,0.9,0,1.3c1.5,0.3,2,0.9,2.1,2.6c0.3,0,0.6,0,0.9,0
	c0.5-0.3,0.4-1.9,1.3-1.7c0.6,0.1-0.2,0.4,0.4,0.4c0-0.6,0-1.1,0-1.7c-0.9-0.1-1.7-0.3-2.6-0.4c-0.4-0.6-0.9-1.1-1.3-1.7
	c0.9-0.4,1.7-0.9,2.6-1.3c0.1,0.4,0.3,0.9,0.4,1.3c0.7-0.5,0.2-0.7,0.4-0.9c0.2-0.1,1.3,0.8,2.1,0.4c0.1-0.3,0.3-0.6,0.4-0.9
	c0.8-0.6,1.5-0.8,3-0.9c0.5,0.5,0,0.2,0.9,0.4c-0.1,0.4-0.3,0.9-0.4,1.3c-2-0.1-1.6-0.9-1.7,1.3c0.6,0.5,0.7,0.8,0.9,1.7
	c2.8-0.1,4-1.2,6.9-1.3c0-0.1,0-0.3,0-0.4c-0.1,0-0.3,0-0.4,0c0-0.4,0-0.9,0-1.3c3.2,0,4.5,1.2,6.9,1.7c-0.1-0.4-0.3-0.9-0.4-1.3
	c0.4,0,0.9,0,1.3,0c0.1-0.4,0.3-0.9,0.4-1.3c0.4,0,0.9,0,1.3,0c0,0.3,0,0.6,0,0.9c0.1,0,0.3,0,0.4,0c0-0.7,0-1.4,0-2.2
	c0.4,0.1,0.9,0.3,1.3,0.4c0-0.1,0-0.3,0-0.4c0.1,0,0.3,0,0.4,0c0-0.4,0-0.9,0-1.3c0.4-0.3,0.9-0.6,1.3-0.9c0-0.1,0-0.3,0-0.4
	c0.7-0.1,1.4-0.3,2.1-0.4c1-0.7,1.3-2.2,2.6-3c0,0.4,0,0.9,0,1.3c0.9-0.1,1.7-0.3,2.6-0.4c0-0.1,0-0.3,0-0.4c0.1,0,0.3,0,0.4,0
	c0-0.4,0-0.9,0-1.3c-0.1,0-0.3,0-0.4,0c-0.5,0.5,0,0.2-0.9,0.4c0-0.3,0-0.6,0-0.9c0.6,0,1.1,0,1.7,0c0.1,1.7,0.7,1.6,0,3
	c0.1,0,0.3,0,0.4,0c0,0.1,0,0.3,0,0.4c0.9,0,1.7,0,2.6,0c0-0.1,0-0.3,0-0.4c-1.3-0.6-2-0.8-2.1-2.6c1.4-0.8,1.9-0.9,4.3-0.9
	c0,0.1,0,0.3,0,0.4c0.1,0,0.3,0,0.4,0c0-0.1,0-0.3,0-0.4c0.1,0,0.3,0,0.4,0c0-0.6,0-1.1,0-1.7c0.3-0.1,0.6-0.3,0.9-0.4
	c1.5-1.6,2.3-1.4,2.6-4.3c0.9,0.1,1.7,0.3,2.6,0.4c0.1-0.4,0.3-0.9,0.4-1.3c2,0,3.7-0.2,5.2-0.4c0.1-0.4,0.3-0.9,0.4-1.3l-0.4-0.4
	c0.4,0,0.9,0,1.3,0c0,0.4,0,0.9,0,1.3c0.1,0,0.3,0,0.4,0c0,0.1,0,0.3,0,0.4c0.4,0,0.9,0,1.3,0c0.6-1.4,1.4-2.7,1.7-4.3
	c-0.3,0-0.6,0-0.9,0c0-0.3,0-0.6,0-0.9c1.3,0.1,2,0.5,3,0.9c0-0.3,0-0.6,0-0.9c-0.7-0.3-2.1-0.9-2.2-1.7c0.1,0,0.3,0,0.4,0
	c0-0.3,0-0.6,0-0.9c0.9-0.4,1.5-0.4,0.9-1.3c0.4,0,0.9,0,1.3,0c0.3-0.6,0.6-1.1,0.9-1.7c0.4,0.1,0.9,0.3,1.3,0.4c0-0.1,0-0.3,0-0.4
	c0.1,0,0.3,0,0.4,0c0.1-0.7,0.3-1.4,0.4-2.2c0.1,0,0.3,0,0.4,0c-0.1-0.4-0.3-0.9-0.4-1.3c0.6,0,1.1,0,1.7,0c0-0.1,0-0.3,0-0.4
	c0.1,0,0.3,0,0.4,0c0-0.4,0-0.9,0-1.3c-0.3,0-0.6,0-0.9,0c0-0.3,0-0.6,0-0.9c0.3,0,0.6,0,0.9,0c0.5-1.9,1.1-1.1,2.1-2.1
	c-0.8-0.5-0.7-0.4-0.9-1.7c0.6,0,1.1,0,1.7,0c0.1-0.4,0.3-0.9,0.4-1.3c-0.1,0-0.3,0-0.4,0c-0.5,0.5,0,0.2-0.9,0.4
	c0.1-0.4,0.3-0.9,0.4-1.3c0.4,0,0.9,0,1.3,0c0-0.3,0-0.6,0-0.9c-0.3,0-0.6,0-0.9,0c0-0.3,0-0.6,0-0.9
	C326.8,56.1,327.7,55.2,330.4,55.1z"/>
<path fill-rule="evenodd" clip-rule="evenodd" fill="#7C0040" d="M232.9,58.1c1,0.2,1.4,0.5,2.1,0.9c0-0.3,0-0.6,0-0.9
	c-0.4-0.1-0.9-0.3-1.3-0.4c-0.5-0.5-0.7-0.5-1.3-0.9c0,0.1,0,0.3,0,0.4c-0.1,0-0.3,0-0.4,0c0,0.6,0,1.1,0,1.7
	c0.4,0.3,0.9,0.6,1.3,0.9c0-0.3,0-0.6,0-0.9C232.9,58.4,233.2,58.9,232.9,58.1z"/>
<path fill-rule="evenodd" clip-rule="evenodd" fill="#7C0040" d="M258.7,58.9c0.1,0,0.3,0,0.4,0c0.1,0.9,0.3,1.7,0.4,2.6
	c-0.4,0.2-1.6-1.4-1.7-1.7C257.9,59.8,258.6,59.2,258.7,58.9z"/>
<path fill-rule="evenodd" clip-rule="evenodd" fill="#7C0040" d="M234.7,62.3c0-0.4,0-0.9,0-1.3c-0.7-0.1-1.4-0.3-2.1-0.4
	c-0.4,0.4-0.7,0.6-1.3,0.9c0.2,0.9-0.1,0.4,0.4,0.9c0,0.1,0,0.3,0,0.4C233.3,62.5,233.2,62.6,234.7,62.3z"/>
<path fill-rule="evenodd" clip-rule="evenodd" fill="#7C0040" d="M258.3,61.1c0,0.3,0,0.6,0,0.9c-0.6-0.3-0.9-0.4-1.3-0.9
	C257.4,61.1,257.9,61.1,258.3,61.1z"/>
<path fill-rule="evenodd" clip-rule="evenodd" fill="#7C0040" d="M229.9,63.2c0,0.4,0,0.9,0,1.3c0.1,0,0.3,0,0.4,0
	c0-0.1,0-0.3,0-0.4c0.6,0,1.1,0,1.7,0c0-0.1,0-0.3,0-0.4c-0.5-0.4-0.1,0.1-0.4-0.4C231.1,63.2,230.5,63.2,229.9,63.2z"/>
<path fill-rule="evenodd" clip-rule="evenodd" fill="#7C0040" d="M230.8,65.8c0.5,0.5,0,0.2,0.9,0.4C231.2,65.7,231.6,66,230.8,65.8
	z"/>
<path fill-rule="evenodd" clip-rule="evenodd" fill="#7C0040" d="M320.7,67.5c0.1,0.4,0.3,0.9,0.4,1.3c0.9-0.2,0.4,0.1,0.9-0.4
	c0.9-0.2,0.4,0.1,0.9-0.4c-0.5-0.4-0.1,0.1-0.4-0.4C321.8,67.5,321.2,67.5,320.7,67.5z"/>
<path fill-rule="evenodd" clip-rule="evenodd" fill="#7C0040" d="M319.8,72.2c0-0.6,0-1.1,0-1.7c-0.4-0.1-0.9-0.3-1.3-0.4
	c0,0.3,0,0.6,0,0.9c0.1,0,0.3,0,0.4,0c-0.1,0.3-0.3,0.6-0.4,0.9c0.1,0,0.3,0,0.4,0C319.4,72.3,318.9,72,319.8,72.2z"/>
<path fill-rule="evenodd" clip-rule="evenodd" fill="none" d="M309.5,77.4c0.4,0,0.9,0,1.3,0c0,0.1,0,0.3,0,0.4c-0.3,0-0.6,0-0.9,0
	c0,0.1,0,0.3,0,0.4C309.5,79.1,309.5,77.4,309.5,77.4z"/>
<path fill-rule="evenodd" clip-rule="evenodd" fill="none" d="M211,114.4c0.2,0.2,0.5,0.8,1.3,0.4c0-0.1,0-0.3,0-0.4
	C211.9,114.4,211.4,114.4,211,114.4z"/>
<path fill-rule="evenodd" clip-rule="evenodd" fill="none" d="M224.8,114.4c-0.1,0.3-0.3,0.6-0.4,0.9c0.4-0.1,0.9-0.3,1.3-0.4
	c0-0.1,0-0.3,0-0.4C225.3,114.4,225.1,114.4,224.8,114.4z"/>
<path fill-rule="evenodd" clip-rule="evenodd" fill="#ED174F" d="M256.6,122.5c0,0.4,0,0.9,0,1.3c-1.4-0.3-1.9-0.7-3.4-0.9
	c0-0.4,0-0.9,0-1.3c-0.7,0-1.4,0-2.1,0c0,0.3,0,0.6,0,0.9c-1.4-0.1-2.9-0.3-4.3-0.4c0-0.1,0-0.3,0-0.4c-0.6,0.1-1.1,0.3-1.7,0.4
	c0-0.1,0-0.3,0-0.4c-0.4,0.1-0.9,0.3-1.3,0.4c-1.6,0-3.2,0-4.7,0c0,0.1,0,0.3,0,0.4c-0.7,0-1.4,0-2.1,0c0,0.1,0,0.3,0,0.4
	c-0.6,0-1.1,0-1.7,0c0,0.1,0,0.3,0,0.4c-0.6,0-1.1,0-1.7,0c0,0.1,0,0.3,0,0.4c-1,0-2,0-3,0c0,0.1,0,0.3,0,0.4
	c-1.2,0.5-2.2,1-3.4,1.3c0,0.3,0,0.6,0,0.9c-0.7,0.1-1.4,0.3-2.1,0.4c0-0.3,0-0.6,0-0.9c-0.4,0.1-0.9,0.3-1.3,0.4
	c-0.1,0.4-0.3,0.9-0.4,1.3c-0.3,0-0.6,0-0.9,0c-0.1,0.6-0.3,1.1-0.4,1.7c-0.1,0-0.3,0-0.4,0c-0.4,1.1,0.2,2.5-0.4,3.4
	c-0.4,0.3-0.9,0.6-1.3,0.9c0-0.1,0-0.3,0-0.4c-0.6-0.7-0.4,0.8-0.4,0.9c-0.1,0-0.3,0-0.4,0c0,0.4,0,0.9,0,1.3
	c-1.4,0.3-1.6,0.6-1.7,2.2c-0.3,0-0.6,0-0.9,0c0.2-1.7,0.7-1.8,0.9-3.4c0.3,0,0.6,0,0.9,0c0.1-0.6,0.3-1.1,0.4-1.7
	c0.6-0.1,1.1-0.3,1.7-0.4c0.2-1.9,0.3-1.7,0-3.4c0.3,0,0.6,0,0.9,0c0.7-2.7,3.6-3.6,6-4.7c0-0.1,0-0.3,0-0.4c0.3,0,0.6,0,0.9,0
	c0-0.1,0-0.3,0-0.4c0.4,0,0.9,0,1.3,0c3.3-1.3,7-2.6,11.6-2.6c1.4,0,2.9,0,4.3,0c0.1,0.3,0.3,0.6,0.4,0.9c2-0.1,4-0.3,6-0.4
	c3.3,0,5.5,0.8,8.2,1.3c0,0.1,0,0.3,0,0.4C258.6,122.5,257.6,122.5,256.6,122.5z"/>
<path fill-rule="evenodd" clip-rule="evenodd" fill="#ED174F" d="M291.4,282.5c0.3,0,0.6,0,0.9,0c-0.9,2.3-0.1,1.4,0.4,3
	c0,1,0,2,0,3c0.3,0.1,0.6,0.3,0.9,0.4c-0.1,0.7-0.6,0.5-0.9,0.9c0.7,2.2,1.4,4.3,2.2,6.5c-0.6,0.1-1.1,0.3-1.7,0.4
	c0,1.6,0.2,2.7,0.4,3.9c0.1,0,0.3,0,0.4,0c0-0.4,0-0.9,0-1.3c0.1,0,0.3,0,0.4,0c0,0.4,0,0.9,0,1.3c1.1-0.3,1-0.5,1.7-0.9
	c0,0.7,0,1.4,0,2.2c-2,0.1-4,0.3-6,0.4c-0.1-1-0.3-2-0.4-3c1.2-0.3,1-0.1,1.3-1.3c-0.1,0-0.3,0-0.4,0c0-0.6,0-1.1,0-1.7
	c-0.1,0-0.3,0-0.4,0c-0.1-0.6-0.3-1.1-0.4-1.7c-0.1,0-0.3,0-0.4,0c0-0.3,0-0.6,0-0.9c-0.3-0.1-0.6-0.3-0.9-0.4c0-0.6,0-1.1,0-1.7
	c0.3,0,0.6,0,0.9,0c0-0.7,0-1.4,0-2.2c0.3,0,0.6,0,0.9,0c-0.1-0.7-0.3-1.4-0.4-2.1c-0.1,0-0.3,0-0.4,0c0-0.5,0.7-1.1,0.4-2.2
	c-2.1-7.2-4.1-14.6-6-21.9c0-0.6,0-1.1,0-1.7c0.1,0,0.3,0,0.4,0c-0.1-0.9-0.3-1.7-0.4-2.6c-0.3,0-0.6,0-0.9,0
	c-0.1-0.7-0.3-1.4-0.4-2.1c-0.1,0-0.3,0-0.4,0c-0.1-1-0.3-2-0.4-3c-0.1,0-0.3,0-0.4,0c-0.3-2.4-0.6-4.9-0.9-7.3
	c0.1-0.4,0.3-0.9,0.4-1.3c-0.1,0-0.3,0-0.4,0c-0.3-2-0.6-4-0.9-6c-0.4,0-0.9,0-1.3,0c0.1-1.3,0.3-2.6,0.4-3.9
	c-0.3-0.1-0.6-0.3-0.9-0.4c0-0.6,0-1.1,0-1.7c-0.1,0-0.3,0-0.4,0c-0.2,0.9,0.1,0.4-0.4,0.9c0-2.8-1-4.8-1.7-6.9
	c-0.1-1.3-0.3-2.6-0.4-3.9c-0.1,0-0.3,0-0.4,0c0-0.6,0-1.1,0-1.7c-0.1,0-0.3,0-0.4,0c0-0.6,0-1.1,0-1.7c-0.1,0-0.3,0-0.4,0
	c0-0.6,0-1.1,0-1.7c-0.1,0-0.3,0-0.4,0c0-0.4,0-0.9,0-1.3c-0.1,0-0.3,0-0.4,0c0-1,0-2,0-3c-0.1,0-0.3,0-0.4,0c0-0.7,0-1.4,0-2.2
	c-0.1,0-0.3,0-0.4,0c0-0.7,0-1.4,0-2.2c-0.1,0-0.3,0-0.4,0c0-0.9,0-1.7,0-2.6c0.1,0,0.3,0,0.4,0c-0.1-0.9-0.3-1.7-0.4-2.6
	c-1.4,0.4-1.2,1-2.1,1.7c-0.5-0.6-0.8-0.7-1.7-0.9c0-0.4,0-0.9,0-1.3c0.7,0,1.4,0,2.2,0c-0.1-0.7-0.3-1.4-0.4-2.1
	c-0.1,0-0.3,0-0.4,0c0-1.4,0-2.9,0-4.3c-0.8-2.6-2.3-5-3.4-7.3c1.5-0.4,1.3-0.8,1.3-2.6c-0.3,0.1-0.6,0.3-0.9,0.4
	c-0.1-0.4-0.3-0.9-0.4-1.3c-0.1,0-0.3,0-0.4,0c0-0.3,0-0.6,0-0.9c-0.1,0-0.3,0-0.4,0c-0.5-0.9-0.1-1-0.9-1.7c0.5-0.5,0-0.2,0.9-0.4
	c-1-2.3-2-4.6-3-6.9c-0.3-0.1-0.6-0.3-0.9-0.4c-0.1-0.6-0.3-1.1-0.4-1.7c-0.3-0.1-0.6-0.3-0.9-0.4c0-0.3,0-0.6,0-0.9
	c-0.3-0.1-0.6-0.3-0.9-0.4c0-0.3,0-0.6,0-0.9c-0.1,0-0.3,0-0.4,0c-0.1-0.4-0.3-0.9-0.4-1.3c-0.4,0.1-0.9,0.3-1.3,0.4
	c-0.1-0.4-0.3-0.9-0.4-1.3c-0.1,0-0.3,0-0.4,0c-0.1-0.4-0.3-0.9-0.4-1.3c-0.3-0.1-0.6-0.3-0.9-0.4c0-0.3,0-0.6,0-0.9
	c-0.4-0.3-0.9-0.6-1.3-0.9c-1.1-1.3-2.3-2.6-3.4-3.9c-0.3,0-0.6,0-0.9,0c-0.1-0.3-0.3-0.6-0.4-0.9c-2.3-1.4-8.1-3.8-11.6-2.6
	c0,0.1,0,0.3,0,0.4c-0.4,0-0.9,0-1.3,0c0,0.1,0,0.3,0,0.4c-0.6,0.1-1.1,0.3-1.7,0.4c0,0.1,0,0.3,0,0.4c-0.3,0-0.6,0-0.9,0
	c-0.3,0.4-0.6,0.9-0.9,1.3c-0.3,0-0.6,0-0.9,0c-0.6,0.7-1.1,1.4-1.7,2.2c-0.3,0-0.6,0-0.9,0c-0.4,0.6-0.9,1.1-1.3,1.7
	c-0.9,0-1.7,0-2.6,0l-0.4,0.4c0.1,0.4,0.3,0.9,0.4,1.3c-0.1,0-0.3,0-0.4,0c-0.6,0.9-0.7,0.8-2.2,0.9c-0.2,1.5-0.5,1.3-0.9,2.6
	c-0.7,0-1.4,0-2.1,0c-0.6,2.3-2.2,1.7-2.6,4.3c-0.3,0-0.6,0-0.9,0c-0.6,2.2-2.9,3.3-4.3,4.7c-0.7,0.9-1.4,1.7-2.1,2.6
	c-0.3,0.1-0.6,0.3-0.9,0.4c0,0.3,0,0.6,0,0.9c-0.9,0.7-1.7,1.4-2.6,2.1c0,0.3,0,0.6,0,0.9c-0.6,0.4-1.1,0.9-1.7,1.3
	c0,0.3,0,0.6,0,0.9c-0.3,0.1-0.6,0.3-0.9,0.4c0,0.1,0,0.3,0,0.4c-0.3,0.1-0.6,0.3-0.9,0.4c0,0.3,0,0.6,0,0.9c-0.1,0-0.3,0-0.4,0
	c-0.5,0.6-0.6,0.8-0.9,1.7c0.3,0,0.6,0,0.9,0c-0.1,0.4-0.3,0.9-0.4,1.3c0.1,0,0.3,0,0.4,0c0-0.1,0-0.3,0-0.4c0.6,0,1.1,0,1.7,0
	c0-0.3,0-0.6,0-0.9c0.4,0,0.9,0,1.3,0c0,0.3,0,0.6,0,0.9c1.2,0.3,1,0.1,1.3,1.3c0.3,0,0.6,0,0.9,0c0-0.3,0-0.6,0-0.9
	c-0.3-0.1-0.6-0.3-0.9-0.4c0-0.6,0-1.1,0-1.7c1-0.1,1.1-0.2,1.7-0.4c0,0.3,0,0.6,0,0.9c0.1,0,0.3,0,0.4,0c0,0.4,0,0.9,0,1.3
	c1.3,0.3,1.5,0.7,3,0.9c0-0.6-0.3,0.2-0.4-0.4c-0.8-0.4,0.9-0.4,0.9-0.4c0-0.3,0-0.6,0-0.9c0.1,0,0.3,0,0.4,0
	c0.3-0.8-1.5-0.9-1.7-1.3c0-0.3,0-0.6,0-0.9c0.4-0.1,0.9-0.3,1.3-0.4c0,0.1,0,0.3,0,0.4c0.3,0,0.6,0,0.9,0c0,0.1,0,0.3,0,0.4
	c1.3,0.3,2.6,0.6,3.9,0.9c0,0.3,0,0.6,0,0.9c1.4,0,0.8-0.8,1.3,0.4c1.8,0.2,1,0.4,2.1,0.9c0-0.1,0-0.3,0-0.4
	c0.5-0.3,0.4-0.5,0.9-0.9c0.1,1,0.2,1.1,0.4,1.7c0.3,0,0.6,0,0.9,0c0.3-0.6,0.6-1.1,0.9-1.7c1.1-0.4,1,0.8,1.3,0.9
	c0.7,0,1.4,0,2.1,0c-0.1-0.9-0.3-1.7-0.4-2.6c2.1,0.3,1.8,1.2,3.9,1.7c0-0.3,0-0.6,0-0.9c0.3,0,0.6,0,0.9,0c0-0.3,0-0.6,0-0.9
	c2.4,0,2.2,0.8,3.9,1.3c0-0.3,0-0.6,0-0.9c1.3,0.3,1,0.8,1.3,0.9c0.9,0,1.7,0,2.6,0c0,0.1,0,0.3,0,0.4c0.4,0,0.9,0,1.3,0
	c0,0.1,0,0.3,0,0.4c0.4,0.1,0.9,0.3,1.3,0.4c0.1-0.6,0.3-1.1,0.4-1.7c0.3,0.1,0.6,0.3,0.9,0.4c0.1-0.3,0.3-0.6,0.4-0.9
	c0.4,0,0.9,0,1.3,0c0-0.1,0-0.3,0-0.4c0.1,0,0.3,0,0.4,0c0,0.1,0,0.3,0,0.4c0.4,0,0.9,0,1.3,0c0,0.1,0,0.3,0,0.4c0.4,0,0.9,0,1.3,0
	c0.1,0.3,0.3,0.6,0.4,0.9c1.4,0.7,2.6,0.2,3.9,0c0.1,0.9,0.3,1.7,0.4,2.6c1.1,0.6,1.2,1.3,2.6,1.7c0-0.1,0-0.3,0-0.4
	c-1.2-1-0.6-1.8-0.4-3.4c0.4,0,0.9,0,1.3,0c0,0.3,0,0.6,0,0.9c0.3,0,0.6,0,0.9,0c0,0.6,0,1.1,0,1.7c1.7,0.1,3.4,0.3,5.2,0.4
	c0-0.1,0-0.3,0-0.4c0.4,0,0.9,0,1.3,0c-0.1,0.6-0.3,1.1-0.4,1.7c0.3,0.1,0.6,0.3,0.9,0.4c0,0.3,0,0.6,0,0.9c0.4,0,0.9,0,1.3,0
	c0.1-0.4,0.3-0.9,0.4-1.3c0.5,0.4,0.1-0.1,0.4,0.4c0.9,0.8,1.2,1.8,1.3,3.4c-0.3,0-0.6,0-0.9,0c0,0.4,0,0.9,0,1.3c0.4,0,0.9,0,1.3,0
	c0,0.1,0,0.3,0,0.4c-0.4,0.4-0.6,0.7-0.9,1.3c-0.4-0.3-0.4-0.5-0.9-0.9c0,0.4,0,0.9,0,1.3c-0.1,0-0.3,0-0.4,0c0-0.3,0-0.6,0-0.9
	c-0.4,0.1-0.9,0.3-1.3,0.4c-1.4-0.4-2.9-0.9-4.3-1.3c0-0.3,0-0.6,0-0.9c-1.1-0.6-1.2-1.3-2.6-1.7c0,0.1,0,0.3,0,0.4
	c-0.1,0-0.3,0-0.4,0c0,0.1,0,0.3,0,0.4c0.1,0,0.3,0,0.4,0c0.4,0.7-0.6,0.4-0.9,0.4c0,0.3,0,0.6,0,0.9c-0.9-0.7-0.2-0.9-1.7-1.3
	c0,0.3,0,0.6,0,0.9c-0.4-0.1-0.9-0.3-1.3-0.4c0.1,0.9,0.3,1.7,0.4,2.6c-1.1-0.3-0.7-0.2-1.3-0.9c-0.1,0-0.3,0-0.4,0
	c0-0.3,0-0.6,0-0.9c-0.3-0.1-0.6-0.3-0.9-0.4c-0.1-0.4-0.3-0.9-0.4-1.3c-0.3,0-0.6,0-0.9,0c0,0.4,0,0.9,0,1.3c-0.1,0-0.3,0-0.4,0
	c0-0.3,0-0.6,0-0.9c-0.5-0.5-0.2,0-0.4-0.9c-0.4,0-0.9,0-1.3,0c0.4,2.1,1.5,3.3,1.7,5.6c-0.1,0-0.3,0-0.4,0c0-0.1,0-0.3,0-0.4
	c-0.6,0-1.1,0-1.7,0c0-1.7,0-3.1-0.9-3.9c0,0.3,0,0.6,0,0.9c-0.6,0.3-0.9,0.4-1.3,0.9c0.5,0.5,0.2,0,0.4,0.9c-0.4,0-0.9,0-1.3,0
	c0,0.3,0,0.6,0,0.9c0.3,0,0.6,0,0.9,0c-0.1,0.6-0.3,1.1-0.4,1.7c-1.5-0.2-1.8-0.1-3.4-0.4c-0.3-1.8-0.1-1.3,0-3.4
	c-2-0.5-1.4-1.5-4.3-1.7c-0.3,0.5-0.4,0.9-0.9,1.3c0.1,0.6,0.3,1.1,0.4,1.7c0.2,0.3,0.9,0.2,0.9,0.9c-0.1,0-0.3,0-0.4,0
	c0,0.1,0,0.3,0,0.4c-0.4-0.1-0.9-0.3-1.3-0.4c0.1,0.7,0.3,1.4,0.4,2.1c-1,0.1-2,0.3-3,0.4c-0.1-0.3-0.3-0.6-0.4-0.9
	c-0.6,0.1-1.1,0.3-1.7,0.4c0-0.1,0-0.3,0-0.4c-0.7-0.5-0.7-0.6-1.7-0.9c0,0.4,0,0.9,0,1.3c-0.1,0-0.3,0-0.4,0
	c-0.4-0.4-0.7-0.6-1.3-0.9c0.2,1.9,0.3,2.1,0,3.9c-0.4,0-0.9,0-1.3,0c0-0.4,0-0.9,0-1.3c-0.1,0-0.3,0-0.4,0c0-0.3,0-0.6,0-0.9
	c-0.1,0-0.3,0-0.4,0c-0.4-0.6-0.7-1.2-1.3-1.7c0-0.1,0-0.3,0-0.4c-0.3,0-0.6,0-0.9,0c-0.1,1-0.3,2-0.4,3c-0.3,0-0.6,0-0.9,0
	c0.2,0.5,0.5,1.8,0,2.6c-0.1,0-0.3,0-0.4,0c0-0.3,0-0.6,0-0.9c-2.6-1.7,0-0.4-0.9-3c-0.1,0-0.3,0-0.4,0c-0.1-0.6-0.3-1.1-0.4-1.7
	c-0.1,0-0.3,0-0.4,0c0,0.4,0,0.9,0,1.3c-0.3,0-0.6,0-0.9,0c0.3,1.5,0.9,1.7,1.3,3c-1.4,0.2-1.3,0.4-2.1,0.9c0,0.1,0,0.3,0,0.4
	c-1.1,0.4-1.2-0.8-1.3-0.9c-0.3,0.1-0.6,0.3-0.9,0.4c-0.2-2-1.3-2.4-1.7-4.3c-0.5,0.5-0.2,0-0.4,0.9c-0.1,0-0.3,0-0.4,0
	c0,0.4,0,0.9,0,1.3c-0.1,0-0.3,0-0.4,0c0,0.1,0,0.3,0,0.4c0.4,0,0.9,0,1.3,0c0.4,1.4,1.2,1.7,1.7,3c-0.1,0-0.3,0-0.4,0
	c-0.5,0.8-0.4,0.7-1.7,0.9c-0.4-0.5-0.3-0.5-0.9-0.9c0,0.1,0,0.3,0,0.4c-0.4,0.4-0.6,0.7-0.9,1.3c-0.9-0.2-0.4,0-0.9-0.4
	c-0.6-0.5-0.7-0.8-0.9-1.7c0.3-0.1,0.6-0.3,0.9-0.4c0,0,0.1,0.9,0.4,0.4c0-0.3,0-0.6,0-0.9c-0.1,0-0.3,0-0.4,0
	c-0.1-0.9-0.3-1.7-0.4-2.6c-0.1,0-0.3,0-0.4,0c0-0.1,0-0.3,0-0.4c-0.4,0-0.9,0-1.3,0c0,0.1,0,0.3,0,0.4c-0.6,0-1.1,0-1.7,0
	c0,0.6,0,1.1,0,1.7c-0.7-0.1-1.4-0.3-2.1-0.4c0,0.3,0,0.6,0,0.9c-0.1,0-0.3,0-0.4,0c0-0.1,0-0.3,0-0.4c-0.6,0.3-0.3,0.5-0.9,0.9
	c0-0.7,0-1.4,0-2.2c-0.4,0-0.9,0-1.3,0c-0.1,0.6-0.3,1.1-0.4,1.7c-0.4-0.1-0.9-0.3-1.3-0.4c0.2,0.7,0.8,1.5,0,2.1
	c-0.4,0-0.9,0-1.3,0c-0.4,0.3-1.1,2.3-1.3,3c-0.1,0-0.3,0-0.4,0c0-0.6,0-1.1,0-1.7c-0.6,0-1.1,0-1.7,0c0,0.1,0,0.3,0,0.4
	c0.8,0.5,0.7,0.4,0.9,1.7c-0.1,0-0.3,0-0.4,0c0-0.1,0-0.3,0-0.4c-0.5-0.5-0.2,0-0.4-0.9c-1.1,0-2.3,0-3.4,0
	c-0.4,0.7-0.6,0.9-1.3,1.3c0.1,0.7,0.3,1.4,0.4,2.2c-0.6,0.1-1.1,0.3-1.7,0.4c-0.1-0.3-0.3-0.6-0.4-0.9c-0.3,0.1-0.6,0.3-0.9,0.4
	c-1-0.4-1.7-1.4-3-1.7c0,0.4,0,0.9,0,1.3c-0.1,0-0.3,0-0.4,0c-0.4-0.5,0.1-0.1-0.4-0.4c-0.3-0.9-0.6-1.7-0.9-2.6c-0.1,0-0.3,0-0.4,0
	c0,0.1,0,0.3,0,0.4c-0.1,0-0.3,0-0.4,0c-0.3,0.5-0.1,2-0.4,2.6c0.1,0,0.3,0,0.4,0c0,0.1,0,0.3,0,0.4c0.6,0,1.1,0,1.7,0
	c0,0.4,0,0.9,0,1.3c-0.1,0-0.3,0-0.4,0c-0.8-1.1-0.7-0.4-2.1-0.9c0,0.3,0,0.6,0,0.9c1.1,0.8,0.6,0.3,0.4,1.7
	c-0.6,0.1-1.1,0.3-1.7,0.4c0,0.3,0,0.6,0,0.9c-0.4-0.3-0.9-0.6-1.3-0.9c-0.1,1.7-0.4,1.3,0,2.6c-0.4,0-0.9,0-1.3,0
	c0,1,0.4,1.1,0.4,1.7c-0.3,0.1-0.6,0.3-0.9,0.4c0,0.7,0,1.4,0,2.2c-0.3,0-0.6,0-0.9,0c0.4,1.3,0.1,1.8,0.4,3c-0.4,0-0.9,0-1.3,0
	c-0.6-0.7-1.6-0.9-2.6-1.3c-0.1-0.7-0.3-1.4-0.4-2.2c-0.3,0-0.6,0-0.9,0c-0.3,1.2-0.6,1-0.9,2.2c-0.3,0-0.6,0-0.9,0
	c-0.1,0.6-0.3,1.1-0.4,1.7c-0.4,0-0.9,0-1.3,0c-0.4,0.6-0.9,1.1-1.3,1.7c-0.1,0-0.3,0-0.4,0c0,0.3,0,0.6,0,0.9
	c-0.4,0.3-0.9,0.6-1.3,0.9c0,0.3,0,0.6,0,0.9c-0.4,0.3-0.9,0.6-1.3,0.9c-0.1,0.6-0.3,1.1-0.4,1.7c-0.3,0.1-0.6,0.3-0.9,0.4
	c-0.3,0.9-0.6,1.7-0.9,2.6c-0.4,0.3-0.9,0.6-1.3,0.9c0,0.3,0,0.6,0,0.9c-0.6,0.4-1.1,0.9-1.7,1.3c-0.1,0.4-0.3,0.9-0.4,1.3
	c-0.4,0.3-0.9,0.6-1.3,0.9c0,0.3,0,0.6,0,0.9c-0.1,0-0.3,0-0.4,0c-0.6,0.8-1,1.4-1.3,2.6c-0.4,0-0.9,0-1.3,0c-0.2,1-0.4,1.1-0.9,1.7
	c-0.1,0-0.3,0-0.4,0c0,0.3,0,0.6,0,0.9c-0.1,0-0.3,0-0.4,0c0,0.3,0,0.6,0,0.9c-0.1,0-0.3,0-0.4,0c0,0.4,0,0.9,0,1.3
	c-0.1,0-0.3,0-0.4,0c0,0.3,0,0.6,0,0.9c-0.1,0-0.3,0-0.4,0c-0.8,1.4-1.2,2.7-2.6,3.4c0,0.1,0,0.3,0,0.4c-0.3-0.1-0.6-0.3-0.9-0.4
	c0,0.1,0,0.3,0,0.4c-0.8,0.8-0.4,0.8-0.9,1.7c-0.1,0-0.3,0-0.4,0c0,0.3,0,0.6,0,0.9c-0.3,0.1-0.6,0.3-0.9,0.4c0,0.3,0,0.6,0,0.9
	c-0.3,0.1-0.6,0.3-0.9,0.4c0,0.3,0,0.6,0,0.9c-0.3,0.1-0.6,0.3-0.9,0.4c-0.1,0.6-0.3,1.2-0.4,1.7c-0.4,0.3-0.9,0.6-1.3,0.9
	c0,0.3,0,0.6,0,0.9c-0.3,0.1-0.6,0.3-0.9,0.4c0,0.3,0,0.6,0,0.9c-0.4,0.3-0.9,0.6-1.3,0.9c0,0.3,0,0.6,0,0.9c0,0-0.9-0.5-1.3,0
	c0,0.3,0,0.6,0,0.9c-0.1,0-0.3,0-0.4,0c0,0.3,0,0.6,0,0.9c-0.3,0.1-0.6,0.3-0.9,0.4c0,0.4,0,0.9,0,1.3c-0.1,0-0.3,0-0.4,0
	c0,0.3,0,0.6,0,0.9c-0.1,0-0.3,0-0.4,0c0,0.3,0,0.6,0,0.9c-0.7,0.3-1.4,0.6-2.2,0.9c0,0.4,0,0.9,0,1.3c-0.9,2-2,5-4.3,5.6
	c0,0.1,0,0.3,0,0.4c-0.4-0.1-0.9-0.3-1.3-0.4c0.1-0.7,0.3-1.4,0.4-2.1c0.1,0,0.3,0,0.4,0c0-0.7,0-1.4,0-2.1c0.1,0,0.3,0,0.4,0
	c0-0.3,0-0.6,0-0.9c0.1,0,0.3,0,0.4,0c0.1-0.4,0.3-0.9,0.4-1.3c0.3,0,0.6,0,0.9,0c0.3-0.6,0.7-0.6,0.9-0.9c0-0.3,0-0.6,0-0.9
	c0.3-0.1,0.6-0.3,0.9-0.4c0-0.3,0-0.6,0-0.9c0.1,0,0.3,0,0.4,0c0-0.3,0-0.6,0-0.9l0.9-0.9c0-0.3,0-0.6,0-0.9
	c0.3-0.1,0.6-0.3,0.9-0.4c0-0.3,0-0.6,0-0.9c0.4-0.3,0.9-0.6,1.3-0.9c0-0.3,0-0.6,0-0.9c0.3-0.1,0.6-0.3,0.9-0.4
	c0.1-0.9,0.3-1.7,0.4-2.6c0.3-0.1,0.6-0.3,0.9-0.4c0.1-0.4,0.3-0.9,0.4-1.3c0.6-0.4,1.1-0.9,1.7-1.3c0.1-0.6,0.3-1.1,0.4-1.7
	c0.1,0,0.3,0,0.4,0c0-0.3,0-0.6,0-0.9l0.9-0.9c0-0.3,0-0.6,0-0.9c0.3-0.1,0.6-0.3,0.9-0.4c0-0.3,0-0.6,0-0.9c0.1,0,0.3,0,0.4,0
	c0-0.3,0-0.6,0-0.9c0.3-0.1,0.6-0.3,0.9-0.4c0.8-1.3,0.2-1.7,1.7-2.6c0-0.1,0-0.3,0-0.4c0.3,0.1,0.6,0.3,0.9,0.4c0-0.1,0-0.3,0-0.4
	c0.1,0,0.3,0,0.4,0c0-0.1,0-0.3,0-0.4c-0.1,0-0.3,0-0.4,0c0-0.1,0-0.3,0-0.4c0.1,0,0.3,0,0.4,0c0-0.4,0-0.9,0-1.3
	c0.3-0.1,0.6-0.3,0.9-0.4c0-0.3,0-0.6,0-0.9c0.1,0,0.3,0,0.4,0c0.1-0.6,0.3-1.1,0.4-1.7c0.1,0,0.3,0,0.4,0c0-0.4,0-0.9,0-1.3
	c0.7-1.1,1.4-2.3,2.2-3.4c0.5-0.4,1.8-0.3,2.2-0.9c0.1-1,0.3-2,0.4-3c0.1,0,0.3,0,0.4,0c0-0.4,0-0.9,0-1.3c0.1,0,0.3,0,0.4,0
	c0.1-0.4,0.3-0.9,0.4-1.3c0.3,0.1,0.6,0.3,0.9,0.4c0-0.1,0-0.3,0-0.4c2-1.7,1.5-4.3,2.6-6.9c0.1,0,0.3,0,0.4,0
	c0.3-0.9,0.6-1.7,0.9-2.6c0.3,0,0.6,0,0.9,0c0.4-0.5-0.1-0.1,0.4-0.4c0.1,0,0.3,0,0.4,0c0.3-0.4,0.6-0.9,0.9-1.3c0.1,0,0.3,0,0.4,0
	c0.3-1,0.6-2,0.9-3c0.4,0,0.9,0,1.3,0c0,0.3,0,0.6,0,0.9c0.5-0.5,0.2,0,0.4-0.9c0.5-0.7-0.2-2.8,0.4-4.3c0.1,0,0.3,0,0.4,0
	c0-0.3,0-0.6,0-0.9c0.1,0,0.3,0,0.4,0c0-0.4,0-0.9,0-1.3c0.4-0.3,0.9-0.6,1.3-0.9c0-0.4,0-0.9,0-1.3c0.3-0.1,0.6-0.3,0.9-0.4
	c-0.1-1.6-0.3-3.2-0.4-4.7c0.4,0,0.9,0,1.3,0c0,0.3,0,0.6,0,0.9c0.4,0,0.9,0,1.3,0c0-0.1,0-0.3,0-0.4c-0.7-0.5-0.6-0.3-0.9-1.3
	c0.3,0.1,0.6,0.3,0.9,0.4c-0.1-0.4-0.3-0.9-0.4-1.3c0.6-0.1,1.1-0.3,1.7-0.4c0.1-0.4,0.3-0.9,0.4-1.3c0.4-0.3,0.9-0.6,1.3-0.9
	c0.3-0.8-0.3-0.7-0.4-0.9c0.1-0.3,0.3-0.6,0.4-0.9c0.7-0.1,1.4-0.3,2.1-0.4c0.4-1.5,1.3-2.4,1.7-3.9c0.3,0,0.6,0,0.9,0
	c0.3-1.5,1.2-3,1.7-4.3c0-0.4,0-0.9,0-1.3c0.3-0.1,0.6-0.3,0.9-0.4c0.1-0.4,0.3-0.9,0.4-1.3c0.4,0,0.9,0,1.3,0
	c0.1-1.9,0.6-2.3,1.3-3.4c0-0.3,0-0.6,0-0.9c0.3-0.1,0.6-0.3,0.9-0.4c0-0.3,0-0.6,0-0.9c0.4-0.3,0.9-0.6,1.3-0.9c0-0.3,0-0.6,0-0.9
	c0.4-0.3,0.9-0.6,1.3-0.9c0.3-0.9,0.6-1.7,0.9-2.6c0.3-0.1,0.6-0.3,0.9-0.4c0.1-0.6,0.3-1.1,0.4-1.7c0.4-0.3,0.9-0.6,1.3-0.9
	c0-0.3,0-0.6,0-0.9l0.9-0.9c0-0.3,0-0.6,0-0.9c0.1,0,0.3,0,0.4,0c0-0.3,0-0.6,0-0.9c0.1,0,0.3,0,0.4,0c0-0.3,0-0.6,0-0.9
	c0.1,0,0.3,0,0.4,0c0.1-0.6,0.3-1.1,0.4-1.7c0.3-0.1,0.6-0.3,0.9-0.4c0.1-0.6,0.3-1.1,0.4-1.7c0.3-0.1,0.6-0.3,0.9-0.4
	c0.3-0.9,0.6-1.7,0.9-2.6c0.3-0.1,0.6-0.3,0.9-0.4c0.3-0.9,0.6-1.7,0.9-2.6c0.3-0.1,0.6-0.3,0.9-0.4c0.1-0.6,0.3-1.1,0.4-1.7
	c0.1,0,0.3,0,0.4,0c0.1-0.4,0.3-0.9,0.4-1.3c0.3-0.1,0.6-0.3,0.9-0.4c0-0.3,0-0.6,0-0.9c0.3-0.1,0.6-0.3,0.9-0.4
	c0.3-0.9,0.6-1.7,0.9-2.6c0.3-0.1,0.6-0.3,0.9-0.4c0-0.3,0-0.6,0-0.9c0.3-0.1,0.6-0.3,0.9-0.4c0.1-0.6,0.3-1.1,0.4-1.7
	c0.3-0.1,0.6-0.3,0.9-0.4c0-0.3,0-0.6,0-0.9c0.3-0.1,0.6-0.3,0.9-0.4c0.1-0.6,0.3-1.1,0.4-1.7c0.3-0.1,0.6-0.3,0.9-0.4
	c0.1-0.6,0.3-1.1,0.4-1.7c0.3-0.1,0.6-0.3,0.9-0.4c0.1-0.6,0.3-1.1,0.4-1.7c0.3-0.1,0.6-0.3,0.9-0.4c0-0.3,0-0.6,0-0.9
	c0.1,0,0.3,0,0.4,0c0-0.3,0-0.6,0-0.9c0.1,0,0.3,0,0.4,0c0.7-1.2-0.4-0.8,1.3-1.3c-0.1,3.2-1.9,3.4-2.1,6.5
	c-1.9,0.5-1.2,1.3-2.1,2.6c-0.4,0.3-0.9,0.6-1.3,0.9c-0.3,1.3-0.6,2.6-0.9,3.9c-0.3,0-0.6,0-0.9,0c0-0.3,0-0.6,0-0.9
	c-0.5,0.5-0.2,0-0.4,0.9c-0.1,0-0.3,0-0.4,0c0,1,0,2,0,3c0.1,0,0.3,0,0.4,0c0.4-0.5-0.1-0.1,0.4-0.4c0.6-1.1,1.1-2.3,1.7-3.4
	c0.3-0.1,0.6-0.3,0.9-0.4c0.1-0.6,0.3-1.1,0.4-1.7c0.3-0.1,0.6-0.3,0.9-0.4c0.1-0.6,0.3-1.1,0.4-1.7c0.3-0.1,0.6-0.3,0.9-0.4
	c0.1-0.6,0.3-1.1,0.4-1.7c0.3-0.1,0.6-0.3,0.9-0.4c0-0.3,0-0.6,0-0.9c0.3-0.1,0.6-0.3,0.9-0.4c0.1-0.6,0.3-1.1,0.4-1.7
	c0.3-0.1,0.6-0.3,0.9-0.4c0.1-0.6,0.3-1.1,0.4-1.7c0.1,0,0.3,0,0.4,0c0.1-0.4,0.3-0.9,0.4-1.3c0.3-0.1,0.6-0.3,0.9-0.4
	c0-0.3,0-0.6,0-0.9c0.1,0,0.3,0,0.4,0c0-0.3,0-0.6,0-0.9c0.3-0.1,0.6-0.3,0.9-0.4c0.1-0.6,0.3-1.1,0.4-1.7c0.3-0.1,0.6-0.3,0.9-0.4
	c0.1-0.6,0.3-1.1,0.4-1.7c0.3-0.1,0.6-0.3,0.9-0.4c0-0.3,0-0.6,0-0.9c0.3-0.1,0.6-0.3,0.9-0.4c0.1-0.6,0.3-1.1,0.4-1.7
	c0.3-0.1,0.6-0.3,0.9-0.4c0-0.3,0-0.6,0-0.9c0.1,0,0.3,0,0.4,0c0.1-0.4,0.3-0.9,0.4-1.3c1-0.3,1.1-0.4,1.7-0.9c0-0.1,0-0.3,0-0.4
	c0.3,0,0.6,0,0.9,0c0.1-0.3,0.3-0.6,0.4-0.9c0.3,0,0.6,0,0.9,0c0-0.1,0-0.3,0-0.4c0.6-0.1,1.1-0.3,1.7-0.4c0-0.1,0-0.3,0-0.4
	c0.9-0.1,1.7-0.3,2.6-0.4c0-0.1,0-0.3,0-0.4c0.6,0,1.1,0,1.7,0c0-0.1,0-0.3,0-0.4c0.9,0,1.7,0,2.6,0c0-0.1,0-0.3,0-0.4
	c1.7,0,3.4,0,5.2,0c0-0.1,0-0.3,0-0.4c0.9-0.1,0.9,0.4,0.9,0.4c2,0,4,0,6,0c0,0.1,0,0.3,0,0.4c1.1,0,2.3,0,3.4,0
	c3,0.9,6.8,1.4,9.5,2.6c-0.1,0.3-0.3,0.6-0.4,0.9c0.1,0,0.3,0,0.4,0c0,0.3,0,0.6,0,0.9c1,0.7,2,1.4,3,2.2c0.4,1.3,0.9,2.6,1.3,3.9
	c-0.1,0.3-0.3,0.6-0.4,0.9c0.1,0,0.3,0,0.4,0c0,0.3,0,0.6,0,0.9c0.1,0,0.3,0,0.4,0c0,0.4,0,0.9,0,1.3c0.1,0,0.3,0,0.4,0
	c0.1,0.7,0.3,1.4,0.4,2.2c0.3,0.1,0.6,0.3,0.9,0.4c0,0.4,0,0.9,0,1.3c0.1,0,0.3,0,0.4,0c-0.1,0.3-0.3,0.6-0.4,0.9c0.1,0,0.3,0,0.4,0
	c0.1,0.9,0.3,1.7,0.4,2.6c0.1,0,0.3,0,0.4,0c0,0.6,0,1.1,0,1.7c0.1,0,0.3,0,0.4,0c0.1,0.9,0.3,1.7,0.4,2.6c0.1,0,0.3,0,0.4,0
	c0,0.3,0,0.6,0,0.9c0.1,0,0.3,0,0.4,0c0,0.4,0,0.9,0,1.3c0.1,0,0.3,0,0.4,0c0.1,1.6,0.3,3.2,0.4,4.7c0.1,0,0.3,0,0.4,0
	c0,0.6,0,1.1,0,1.7c0.1,0,0.3,0,0.4,0c0,0.4,0,0.9,0,1.3c0.1,0,0.3,0,0.4,0c0.1,1.3,0.3,2.6,0.4,3.9c0.1,0,0.3,0,0.4,0
	c0,0.6,0,1.1,0,1.7c0.1,0,0.3,0,0.4,0c0.1,1.4,0.3,2.9,0.4,4.3c2,6,2.4,13.6,4.3,19.8c0.1,1.7,0.3,3.4,0.4,5.2c0.1,0,0.3,0,0.4,0
	c0.3,2.6,0.6,5.2,0.9,7.7c0.1,0,0.3,0,0.4,0c0,0.6,0,1.1,0,1.7c0.1,0,0.3,0,0.4,0c-0.1,0.3-0.3,0.6-0.4,0.9c0.1,0,0.3,0,0.4,0
	c0.1,1.9,0.3,3.7,0.4,5.6c0.1,0,0.3,0,0.4,0c0,0.9,0,1.7,0,2.6c0.1,0,0.3,0,0.4,0c0.1,1.9,0.3,3.7,0.4,5.6c0.1,0,0.3,0,0.4,0
	c0,1.1,0,2.3,0,3.4c0.1,0,0.3,0,0.4,0c0,1,0,2,0,3c0.1,0,0.3,0,0.4,0c0,1,0,2,0,3c0.1,0,0.3,0,0.4,0c0.1,2.1,0.3,4.3,0.4,6.5
	c1.1,3.8,1,9,2.1,12.9c0,1.1,0,2.3,0,3.4c0.1,0,0.3,0,0.4,0c0.1,2.3,0.3,4.6,0.4,6.9c0.1,0,0.3,0,0.4,0c0,1.3,0,2.6,0,3.9
	c0.1,0,0.3,0,0.4,0c0,1.1,0,2.3,0,3.4c0.1,0,0.3,0,0.4,0c0,1.3,0,2.6,0,3.9c0.1,0,0.3,0,0.4,0c0,1.1,0,2.3,0,3.4c0.1,0,0.3,0,0.4,0
	c0,1.3,0,2.6,0,3.9c0.1,0,0.3,0,0.4,0c0,0.4,0,0.9,0,1.3c0.1,0,0.3,0,0.4,0c0.2,0.9-0.4,1.3-0.4,1.3
	C291.1,279.6,291.3,281.1,291.4,282.5z"/>
<path fill-rule="evenodd" clip-rule="evenodd" fill="#ED174F" d="M214.9,138c0.3,0,0.6,0,0.9,0c0,1.8-0.4,2.7-0.9,3.9
	c-0.1,0-0.3,0-0.4,0c0-0.1,0-0.3,0-0.4c0-0.1,0-0.3,0-0.4c-0.3-0.1-0.6-0.3-0.9-0.4c0.1-0.4,0.3-0.9,0.4-1.3
	C214.8,138.8,214.6,139,214.9,138z"/>
<path fill-rule="evenodd" clip-rule="evenodd" fill="#ED174F" d="M204.6,159.1c-0.1,0.6-0.3,1.1-0.4,1.7c-0.1,0-0.3,0-0.4,0
	c0,0.1,0,0.3,0,0.4c0.3,0,0.6,0,0.9,0c0.2-1,0.5-1.4,0.9-2.1C205.1,159.1,204.8,159.1,204.6,159.1z"/>
<path fill-rule="evenodd" clip-rule="evenodd" fill="#ED174F" d="M199,168.1c0.4,0,0.9,0,1.3,0c0.7-1.3,1.4-2.6,2.1-3.9
	c-0.4,0-0.9,0-1.3,0c0,0.1,0,0.3,0,0.4C200.1,165.5,199.3,166.7,199,168.1z"/>
<path fill-rule="evenodd" clip-rule="evenodd" fill="#ED174F" d="M193.4,178c0.3,0,0.6,0,0.9,0c0.1-0.4,0.3-0.9,0.4-1.3
	c0.1,0,0.3,0,0.4,0c0-0.3,0-0.6,0-0.9c0.1,0,0.3,0,0.4,0c0-0.3,0-0.6,0-0.9c0.3-0.1,0.6-0.3,0.9-0.4c0-0.3,0-0.6,0-0.9
	c0.3-0.1,0.6-0.3,0.9-0.4c0.1-0.6,0.3-1.2,0.4-1.7c0.3-0.1,0.6-0.3,0.9-0.4c0-0.3,0-0.6,0-0.9c0.1,0,0.3,0,0.4,0
	c0.1-0.4,0.3-0.9,0.4-1.3c-0.1,0-0.3,0-0.4,0c-0.3,0.4-0.6,0.9-0.9,1.3c-0.1,0-0.3,0-0.4,0c0,0.3,0,0.6,0,0.9
	c-0.4,0.3-0.9,0.6-1.3,0.9c0,0.3,0,0.6,0,0.9c-0.3,0.1-0.6,0.3-0.9,0.4c-0.1,0.6-0.3,1.1-0.4,1.7c-0.3,0.1-0.6,0.3-0.9,0.4
	c0,0.4,0,0.9,0,1.3c-0.1,0-0.3,0-0.4,0C193.7,177.2,193.5,177.6,193.4,178z"/>
<path fill-rule="evenodd" clip-rule="evenodd" fill="#ED174F" d="M233.8,190.9c0.5,0.5,0.2,0,0.4,0.9c-0.1,0-0.3,0-0.4,0
	C233.8,191.5,233.8,191.2,233.8,190.9z"/>
<path fill-rule="evenodd" clip-rule="evenodd" fill="#ED174F" d="M200.7,195.2c-0.4,0.8-0.6,0.7-0.9,1.7c0.1,0,0.3,0,0.4,0
	c0.4-0.6,0.9-0.6,1.3-1.3C201.3,195.5,201,195.4,200.7,195.2z"/>
<path fill-rule="evenodd" clip-rule="evenodd" fill="#ED174F" d="M259.6,198.7c0.1,0.4,0.3,0.9,0.4,1.3c0.1,0,0.3,0,0.4,0
	c0-0.4,0-0.9,0-1.3C260.2,198.7,259.9,198.7,259.6,198.7z"/>
<path fill-rule="evenodd" clip-rule="evenodd" fill="#ED174F" d="M179.6,199.1c-0.1,0.9-0.3,1.7-0.4,2.6c0.1,0,0.3,0,0.4,0
	c0-0.1,0-0.3,0-0.4c0.7-0.6,0.7-0.9,0.9-2.1C180.2,199.1,179.9,199.1,179.6,199.1z"/>
<path fill-rule="evenodd" clip-rule="evenodd" fill="#ED174F" d="M242,201.2c-0.4,0-0.9,0-1.3,0c0,0.1,0,0.3,0,0.4
	c0.1,0,0.3,0,0.4,0c0.1,1,0.3,2,0.4,3c0.1,0,0.3,0,0.4,0c0.1,0.4,0.3,0.9,0.4,1.3c0.1,0,0.3,0,0.4,0c-0.1-2.7-0.6-0.7,0.9-2.6
	C242.7,202.9,242.3,202.4,242,201.2z"/>
<path fill-rule="evenodd" clip-rule="evenodd" fill="#ED174F" d="M262.6,201.2c0,0.9,0,1.7,0,2.6c0.6,0,1.1,0,1.7,0
	c0-0.1,0-0.3,0-0.4c-0.4-0.3-1.2-0.4-0.9-1.3c0.1,0,0.3,0,0.4,0c0-0.3,0-0.6,0-0.9C263.5,201.2,263,201.2,262.6,201.2z"/>
<path fill-rule="evenodd" clip-rule="evenodd" fill="#ED174F" d="M267.3,202.1c0.3,0,0.6,0,0.9,0c0,0.3,0,0.6,0,0.9
	c-0.3,0-0.6,0-0.9,0C267.3,202.7,267.3,202.4,267.3,202.1z"/>
<path fill-rule="evenodd" clip-rule="evenodd" fill="#ED174F" d="M257.4,203c0.1,0,0.3,0,0.4,0c0,0.4,0,0.9,0,1.3
	c-0.1,0-0.3,0-0.4,0C257.4,203.8,257.4,203.4,257.4,203z"/>
<path fill-rule="evenodd" clip-rule="evenodd" fill="#ED174F" d="M216.2,207.7c0.3,0,0.6,0,0.9,0c-0.1-0.7-0.3-1.4-0.4-2.1
	c0.4-0.1,0.9-0.3,1.3-0.4c0,0.3,0,0.6,0,0.9c0.1,0,0.3,0,0.4,0c0-0.4,0-0.9,0-1.3c-0.4-0.1-0.9-0.3-1.3-0.4c0-0.1,0-0.3,0-0.4
	c-0.1,0-0.3,0-0.4,0c0,0.1,0,0.3,0,0.4c-1,0.3-1.6-0.2-2.2-0.4c0,0.6,0,1.1,0,1.7C215.4,206.1,215.9,206.5,216.2,207.7z"/>
<path fill-rule="evenodd" clip-rule="evenodd" fill="#ED174F" d="M238.1,203.8c0.8,0.5,0.7,0.4,0.9,1.7c-0.1,0-0.3,0-0.4,0
	c0,0.1,0,0.3,0,0.4c-0.1,0-0.3,0-0.4,0C238.1,205.3,238.1,204.5,238.1,203.8z"/>
<path fill-rule="evenodd" clip-rule="evenodd" fill="#ED174F" d="M257.4,204.7c0.1,0,0.3,0,0.4,0c0,0.4,0,0.9,0,1.3
	c-0.1,0-0.3,0-0.4,0C257.4,205.5,257.4,205.1,257.4,204.7z"/>
<path fill-rule="evenodd" clip-rule="evenodd" fill="#ED174F" d="M232.1,205.5c-0.1,0.3-0.3,0.6-0.4,0.9c0.1,0,0.3,0,0.4,0
	c0,0,0.1,0.9,0.4,0.4c0-0.4,0-0.9,0-1.3C232.4,205.5,232.2,205.5,232.1,205.5z"/>
<path fill-rule="evenodd" clip-rule="evenodd" fill="#ED174F" d="M263,206.4c0.3,0,0.6,0,0.9,0c0,0.3,0,0.6,0,0.9
	c-0.3,0-0.6,0-0.9,0C263,207,263,206.7,263,206.4z"/>
<path fill-rule="evenodd" clip-rule="evenodd" fill="#ED174F" d="M236.8,208.1c0,0.4,0,0.9,0,1.3c-0.1,0-0.3,0-0.4,0
	c0-0.3,0-0.6,0-0.9c-0.3,0.1-0.6,0.3-0.9,0.4c0-0.1,0-0.3,0-0.4c-0.5-0.5-0.2,0-0.4-0.9c0.1,0,0.3,0,0.4,0c0,0.1,0,0.3,0,0.4
	C235.9,208.1,236.4,208.1,236.8,208.1z"/>
<path fill-rule="evenodd" clip-rule="evenodd" fill="#ED174F" d="M230.8,208.1c0.3,0,0.6,0,0.9,0c0,0.1,0,0.3,0,0.4
	C230.8,208.3,231.3,208.6,230.8,208.1z"/>
<path fill-rule="evenodd" clip-rule="evenodd" fill="#ED174F" d="M241.1,208.1c0.3,0,0.6,0,0.9,0c0,0.3,0,0.6,0,0.9
	c-0.3,0-0.6,0-0.9,0C241.1,208.7,241.1,208.4,241.1,208.1z"/>
<path fill-rule="evenodd" clip-rule="evenodd" fill="#ED174F" d="M233.8,209.8c0-0.3,0-0.6,0-0.9c0.1,0,0.3,0,0.4,0
	c0,0.1,0,0.3,0,0.4c0.1,0,0.3,0,0.4,0C234.2,209.9,234.7,209.6,233.8,209.8z"/>
<path fill-rule="evenodd" clip-rule="evenodd" fill="#ED174F" d="M189.1,212c0.3,0,0.6,0,0.9,0c0-0.1,0-0.3,0-0.4
	c-0.4-0.3-0.9-0.6-1.3-0.9c0,0.1,0,0.3,0,0.4C189.1,211.6,188.8,211.1,189.1,212z"/>
<path fill-rule="evenodd" clip-rule="evenodd" fill="#ED174F" d="M193.4,212.8c0.3,0,0.6,0,0.9,0c-0.1-0.4-0.3-0.9-0.4-1.3
	c-0.3,0-0.6,0-0.9,0c0,0.1,0,0.3,0,0.4C193.4,212.5,193.1,212,193.4,212.8z"/>
<path fill-rule="evenodd" clip-rule="evenodd" fill="#ED174F" d="M184.8,214.6c-0.3,0-0.6,0-0.9,0c0.4,0.5-0.1,0.1,0.4,0.4
	c0,0.1,0,0.3,0,0.4c0.1,0,0.3,0,0.4,0C184.8,215.1,184.8,214.9,184.8,214.6z"/>
<path fill-rule="evenodd" clip-rule="evenodd" fill="#ED174F" d="M290.1,293.3c0.3,0,0.6,0,0.9,0c-0.2-1-0.5-2.5-0.9-3.4
	c-0.1,0-0.3,0-0.4,0c0,0.4,0,0.9,0,1.3c0.1,0,0.3,0,0.4,0C290.1,291.8,290.1,292.5,290.1,293.3z"/>
<path fill-rule="evenodd" clip-rule="evenodd" fill="#ED174F" d="M289.3,298c0.5,0.5,0.2,0,0.4,0.9c-0.1,0-0.3,0-0.4,0
	C289.3,298.6,289.3,298.3,289.3,298z"/>
<g>
	<path fill="#7C0040" d="M327.2,144.9c6.9-1.2,16.7-2.1,30.4-2.1c13.9,0,23.9,2.7,30.5,8.1c6.3,4.9,10.5,13.1,10.5,22.8
		c0,9.9-3.1,18.1-9,23.6c-7.7,7.1-19.2,10.5-32.4,10.5c-2.9,0-5.6-0.1-7.7-0.6V243h-22.3V144.9z M349.4,190c1.9,0.4,4.3,0.6,7.5,0.6
		c11.9,0,19.3-6,19.3-16.1c0-9.1-6.2-14.6-17.5-14.6c-4.6,0-7.7,0.3-9.3,0.7V190z"/>
	<path fill="#7C0040" d="M533.7,204.9c-0.4-11.9-0.9-26.2-0.9-40.8h-0.3c-3.2,12.7-7.4,26.8-11.2,38.5l-12.1,38.8h-17.5L481.1,203
		c-3.2-11.8-6.5-25.8-9-38.9h-0.3c-0.4,13.4-1,28.7-1.6,41.1l-1.9,37.7h-20.8l6.3-99.3h29.9l9.7,33.3c3.2,11.4,6.2,23.7,8.4,35.4
		h0.6c2.7-11.5,6-24.5,9.4-35.7l10.5-33h29.5l5.3,99.3h-21.8L533.7,204.9z"/>
	<path fill="#7C0040" d="M670.3,200.9h-36.6v23.6h40.8V243h-63.2v-99.3h61.2V162h-38.8v20.6h36.6V200.9z"/>
</g>
<g>
	<path fill="#7C0040" d="M22.4,143.9v99.3H0v-99.3H22.4z"/>
	<path fill="#7C0040" d="M78.9,143.9h60.6v18.4h-38.2V185h35.7v18.3h-35.7v39.9H78.9V143.9z"/>
</g>
</svg>
